<svg width="16" height="14" viewBox="0 0 16 14" fill="none" xmlns="http://www.w3.org/2000/svg">
<path fill-rule="evenodd" clip-rule="evenodd" d="M13.3333 12.25C12.1778 12.25 11.2593 11.3458 11.2593 10.2083V2.04167C11.2593 0.904167 12.1778 0 13.3333 0C14.4889 0 15.4074 0.904167 15.4074 2.04167V10.2083C15.4074 11.3458 14.4889 12.25 13.3333 12.25ZM2.66667 12.25C1.51111 12.25 0.592593 11.3458 0.592593 10.2083V3.79167C0.592593 2.65417 1.51111 1.75 2.66667 1.75C3.82222 1.75 4.74074 2.65417 4.74074 3.79167V10.2083C4.74074 11.3458 3.82222 12.25 2.66667 12.25ZM15.4074 12.8333C15.7333 12.8333 16 13.0958 16 13.4167C16 13.7375 15.7333 14 15.4074 14H0.592593C0.266667 14 0 13.7375 0 13.4167C0 13.0958 0.266667 12.8333 0.592593 12.8333H15.4074ZM1.77778 3.79167C1.77778 3.29583 2.16296 2.91667 2.66667 2.91667C3.17037 2.91667 3.55556 3.29583 3.55556 3.79167V10.2083C3.55556 10.7042 3.17037 11.0833 2.66667 11.0833C2.16296 11.0833 1.77778 10.7042 1.77778 10.2083V3.79167ZM8 12.25C6.84444 12.25 5.92593 11.3458 5.92593 10.2083V6.70833C5.92593 5.57083 6.84444 4.66667 8 4.66667C9.15556 4.66667 10.0741 5.57083 10.0741 6.70833V10.2083C10.0741 11.3458 9.15556 12.25 8 12.25ZM7.11111 6.70833C7.11111 6.2125 7.4963 5.83333 8 5.83333C8.5037 5.83333 8.88889 6.2125 8.88889 6.70833V10.2083C8.88889 10.7042 8.5037 11.0833 8 11.0833C7.4963 11.0833 7.11111 10.7042 7.11111 10.2083V6.70833ZM12.4444 2.04167C12.4444 1.54583 12.8296 1.16667 13.3333 1.16667C13.837 1.16667 14.2222 1.54583 14.2222 2.04167V10.2083C14.2222 10.7042 13.837 11.0833 13.3333 11.0833C12.8296 11.0833 12.4444 10.7042 12.4444 10.2083V2.04167Z" fill="currentColor"/>
</svg>
