<svg width="12" height="12" viewBox="0 0 12 12" fill="none" xmlns="http://www.w3.org/2000/svg">
<path fill-rule="evenodd" clip-rule="evenodd" d="M3.56757 2.27027L3.35135 0.108108L4.43243 0L4.64865 2.16216L3.56757 2.27027ZM7.89189 6.48649L8.64865 7.24324L10.9189 4.97297C11.3514 4.43243 11.6757 3.78378 11.6757 3.02703C11.6757 2.27027 11.4595 1.62162 10.9189 1.08108C10.3784 0.648649 9.72973 0.324324 8.97297 0.324324C8.21622 0.324324 7.56757 0.540541 7.02703 1.08108L4.75676 3.35135L5.62162 4.10811L7.78378 1.72973C8.10811 1.51351 8.54054 1.2973 8.97297 1.2973C9.40541 1.2973 9.83784 1.40541 10.1622 1.72973C10.3784 2.05405 10.5946 2.48649 10.5946 2.91892C10.5946 3.35135 10.4865 3.78378 10.1622 4.10811L7.89189 6.48649ZM0.972973 11.027C1.51351 11.5676 2.27027 11.7838 2.91892 11.7838C3.56757 11.7838 4.32432 11.5676 4.75676 11.027L7.02703 8.75676L6.27027 8L4 10.2703C3.35135 10.9189 2.37838 10.9189 1.72973 10.2703C1.08108 9.62162 1.08108 8.64865 1.72973 8L4 5.72973L3.24324 4.97297L0.972973 7.24324C-0.108108 8.21622 -0.108108 9.94595 0.972973 11.027ZM2.16216 4.75676L0 4.54054L0.108108 3.45946L2.27027 3.67568L2.16216 4.75676ZM0.864865 1.72973L2.37838 3.24324L3.13514 2.48649L1.62162 0.972973L0.864865 1.72973ZM7.35135 9.83784L7.56757 12L8.64865 11.8919L8.43243 9.72973L7.35135 9.83784ZM8.86487 9.51351L9.62162 8.75676L11.1351 10.2703L10.3784 11.027L8.86487 9.51351ZM9.72973 8.32432L11.8919 8.54054L12 7.45946L9.83784 7.24324L9.72973 8.32432Z" fill="#999999"/>
</svg>
