<svg width="10" height="12" viewBox="0 0 10 12" fill="none" xmlns="http://www.w3.org/2000/svg">
<path fill-rule="evenodd" clip-rule="evenodd" d="M1.45833 3H9.16667V10.7143C9.16667 10.95 8.97917 11.1429 8.75 11.1429H1.25C1.02083 11.1429 0.833333 10.95 0.833333 10.7143V2.85836C1.02222 2.94932 1.23392 3 1.45833 3ZM0 1.5C0 2.10489 0.338342 2.61997 0.833333 2.85836V1.5C0.833333 1.86429 1.10417 2.14286 1.45833 2.14286H8.67904C8.78618 2.37849 8.95267 2.5822 9.16667 2.73169V3H9.58333C9.8125 3 10 2.80714 10 2.57143V10.7143C10 11.4214 9.4375 12 8.75 12H1.25C0.5625 12 0 11.4214 0 10.7143V1.5ZM9.99022 0.520821C9.99662 0.491085 10 0.460215 10 0.428571C10 0.192857 9.8125 0 9.58333 0H1.45833C0.645833 0 0 0.664286 0 1.5C0 1.26429 0.1875 1.07143 0.416667 1.07143C0.645833 1.07143 0.833333 1.26429 0.833333 1.5C0.833333 1.13571 1.10417 0.857143 1.45833 0.857143H8.67904C8.58974 1.05355 8.54167 1.27214 8.54167 1.5C8.54167 1.72786 8.58974 1.94645 8.67904 2.14286H9.58333C9.35417 2.14286 9.16667 2.33571 9.16667 2.57143V2.73169C9.24398 2.7857 9.3275 2.83263 9.41667 2.87143C9.42971 2.8759 9.44185 2.88037 9.45346 2.88465C9.49747 2.90087 9.53388 2.91429 9.58333 2.91429C9.75 2.91429 9.89583 2.80714 9.95833 2.63571C10.0625 2.42143 9.95833 2.16429 9.75 2.07857C9.52083 1.99286 9.375 1.75714 9.375 1.5C9.375 1.24286 9.52083 1.00714 9.75 0.9C9.90232 0.83733 9.98782 0.683019 9.99022 0.520821ZM9.99022 0.520821C9.9911 0.461178 9.98074 0.400469 9.95833 0.342857C9.875 0.128571 9.625 0.0428571 9.41667 0.128571C9.08071 0.274769 8.82489 0.536373 8.67904 0.857143H9.58333C9.78174 0.857143 9.94891 0.71259 9.99022 0.520821ZM6.20833 9.47143C6.125 9.47143 6.04167 9.45 5.97917 9.42857L5 8.97857L4.02083 9.42857C3.83333 9.51429 3.60417 9.49286 3.45833 9.36429C3.29167 9.23571 3.20833 9.04286 3.22917 8.82857L3.33333 7.73571L2.625 6.92143C2.47917 6.77143 2.4375 6.53571 2.5 6.34286C2.5625 6.15 2.72917 6 2.9375 5.93571L3.97917 5.7L4.52083 4.75714C4.625 4.58571 4.8125 4.45714 5.02083 4.45714C5.22917 4.45714 5.41667 4.56429 5.52083 4.75714L6.0625 5.7L7.10417 5.93571C7.3125 5.97857 7.45833 6.12857 7.52083 6.34286C7.58333 6.53571 7.54167 6.77143 7.39583 6.92143L6.66667 7.73571L6.77083 8.82857C6.79167 9.04286 6.70833 9.23571 6.54167 9.36429C6.4375 9.42857 6.33333 9.47143 6.20833 9.47143ZM3.54167 6.68571L4.04167 7.24286C4.14583 7.37143 4.20833 7.54286 4.1875 7.69286L4.10417 8.44286L4.77083 8.14286C4.91667 8.07857 5.08333 8.07857 5.22917 8.14286L5.89583 8.44286L5.83333 7.71429C5.8125 7.54286 5.875 7.39286 5.97917 7.26429L6.47917 6.70714L5.77083 6.55714C5.60417 6.51429 5.47917 6.42857 5.39583 6.27857L5 5.59286L4.625 6.23571C4.54167 6.38571 4.41667 6.47143 4.25 6.51429L3.54167 6.68571Z" fill="#999999"/>
</svg>
