<svg width="12" height="12" viewBox="0 0 12 12" fill="none" xmlns="http://www.w3.org/2000/svg">
<path fill-rule="evenodd" clip-rule="evenodd" d="M9.77778 1.34615H8.22222V0.923077C8.22222 0.690385 8.02222 0.5 7.77778 0.5C7.53333 0.5 7.33333 0.690385 7.33333 0.923077V1.34615H4.66667V0.923077C4.66667 0.690385 4.46667 0.5 4.22222 0.5C3.97778 0.5 3.77778 0.690385 3.77778 0.923077V1.34615H2.22222C1 1.34615 0 2.29808 0 3.46154V9.38461C0 10.5481 1 11.5 2.22222 11.5H9.77778C11 11.5 12 10.5481 12 9.38461V3.46154C12 2.29808 11 1.34615 9.77778 1.34615ZM2.22222 2.19231H3.77778V2.61538C3.77778 2.84808 3.97778 3.03846 4.22222 3.03846C4.46667 3.03846 4.66667 2.84808 4.66667 2.61538V2.19231H7.33333V2.61538C7.33333 2.84808 7.53333 3.03846 7.77778 3.03846C8.02222 3.03846 8.22222 2.84808 8.22222 2.61538V2.19231H9.77778C10.5111 2.19231 11.1111 2.76346 11.1111 3.46154V3.88462H0.888889V3.46154C0.888889 2.76346 1.48889 2.19231 2.22222 2.19231ZM2.22222 10.6538H9.77778C10.5111 10.6538 11.1111 10.0827 11.1111 9.38461V4.73077H0.888889V9.38461C0.888889 10.0827 1.48889 10.6538 2.22222 10.6538Z" fill="#999999"/>
<path fill-rule="evenodd" clip-rule="evenodd" d="M3.77779 6H2.8889C2.64446 6 2.44446 6.19038 2.44446 6.42308C2.44446 6.65577 2.64446 6.84615 2.8889 6.84615H3.77779C4.02224 6.84615 4.22224 6.65577 4.22224 6.42308C4.22224 6.19038 4.02224 6 3.77779 6ZM3.77779 8.11538H2.8889C2.64446 8.11538 2.44446 8.30577 2.44446 8.53846C2.44446 8.77115 2.64446 8.96154 2.8889 8.96154H3.77779C4.02224 8.96154 4.22224 8.77115 4.22224 8.53846C4.22224 8.30577 4.02224 8.11538 3.77779 8.11538ZM6.44446 8.11538H5.55557C5.31112 8.11538 5.11112 8.30577 5.11112 8.53846C5.11112 8.77115 5.31112 8.96154 5.55557 8.96154H6.44446C6.6889 8.96154 6.8889 8.77115 6.8889 8.53846C6.8889 8.30577 6.6889 8.11538 6.44446 8.11538ZM8.22224 8.11538H9.11112C9.35557 8.11538 9.55557 8.30577 9.55557 8.53846C9.55557 8.77115 9.35557 8.96154 9.11112 8.96154H8.22224C7.97779 8.96154 7.77779 8.77115 7.77779 8.53846C7.77779 8.30577 7.97779 8.11538 8.22224 8.11538ZM5.55557 6H6.44446C6.6889 6 6.8889 6.19038 6.8889 6.42308C6.8889 6.65577 6.6889 6.84615 6.44446 6.84615H5.55557C5.31112 6.84615 5.11112 6.65577 5.11112 6.42308C5.11112 6.19038 5.31112 6 5.55557 6ZM9.11112 6H8.22224C7.97779 6 7.77779 6.19038 7.77779 6.42308C7.77779 6.65577 7.97779 6.84615 8.22224 6.84615H9.11112C9.35557 6.84615 9.55557 6.65577 9.55557 6.42308C9.55557 6.19038 9.35557 6 9.11112 6Z" fill="#999999"/>
</svg>
