<svg width="14" height="12" viewBox="0 0 14 12" fill="none" xmlns="http://www.w3.org/2000/svg">
<path fill-rule="evenodd" clip-rule="evenodd" d="M13.4615 1.09091H4.84615C4.55 1.09091 4.30769 0.845455 4.30769 0.545455C4.30769 0.245455 4.55 0 4.84615 0H13.4615C13.7577 0 14 0.245455 14 0.545455C14 0.845455 13.7577 1.09091 13.4615 1.09091ZM4.84615 6.54545H13.4615C13.7577 6.54545 14 6.3 14 6C14 5.7 13.7577 5.45455 13.4615 5.45455H4.84615C4.55 5.45455 4.30769 5.7 4.30769 6C4.30769 6.3 4.55 6.54545 4.84615 6.54545ZM4.84615 12H13.4615C13.7577 12 14 11.7545 14 11.4545C14 11.1545 13.7577 10.9091 13.4615 10.9091H4.84615C4.55 10.9091 4.30769 11.1545 4.30769 11.4545C4.30769 11.7545 4.55 12 4.84615 12ZM0.538462 6.54545H2.15385C2.45 6.54545 2.69231 6.3 2.69231 6C2.69231 5.7 2.45 5.45455 2.15385 5.45455H0.538462C0.242308 5.45455 0 5.7 0 6C0 6.3 0.242308 6.54545 0.538462 6.54545ZM2.15385 12H0.538462C0.242308 12 0 11.7545 0 11.4545C0 11.1545 0.242308 10.9091 0.538462 10.9091H2.15385C2.45 10.9091 2.69231 11.1545 2.69231 11.4545C2.69231 11.7545 2.45 12 2.15385 12ZM0.538462 1.09091H2.15385C2.45 1.09091 2.69231 0.845455 2.69231 0.545455C2.69231 0.245455 2.45 0 2.15385 0H0.538462C0.242308 0 0 0.245455 0 0.545455C0 0.845455 0.242308 1.09091 0.538462 1.09091Z" fill="#999999"/>
</svg>
