<svg width="13" height="12" viewBox="0 0 13 12" fill="none" xmlns="http://www.w3.org/2000/svg">
<path fill-rule="evenodd" clip-rule="evenodd" d="M4.23314 3.61345C4.64804 4.42655 5.50128 4.98113 6.49238 4.98113C7.48667 4.98113 8.34222 4.42296 8.75561 3.60557C9.85526 4.32094 10.551 5.49263 10.6227 6.79538C10.3562 6.78055 10.0865 6.80925 9.82449 6.88302C9.15807 7.04151 8.62952 7.4717 8.28482 8.03774C7.94012 8.60377 7.87118 9.26038 8.03204 9.91698C8.09884 10.1896 8.21319 10.4389 8.36523 10.6614C7.79164 10.9429 7.16049 11.0943 6.51536 11.0943C5.85269 11.0943 5.20476 10.9345 4.61883 10.6382C4.76507 10.4179 4.87791 10.1749 4.95271 9.91698C5.13655 9.28302 5.04463 8.60377 4.69993 8.03774C4.35523 7.4717 3.80371 7.06415 3.16027 6.88302C2.89821 6.80925 2.62854 6.78055 2.3621 6.79538C2.43358 5.4974 3.12528 4.32953 4.23314 3.61345ZM3.97333 2.70076C3.96753 2.63148 3.96457 2.56138 3.96457 2.49057C3.96457 1.10943 5.09059 0 6.49238 0C7.89416 0 9.02019 1.10943 9.02019 2.49057C9.02019 2.55782 9.01752 2.62444 9.01227 2.69031C8.91753 2.6362 8.82056 2.58468 8.72145 2.53585C8.49164 2.42264 8.21588 2.51321 8.10098 2.73962C7.98608 2.96604 8.078 3.23774 8.3078 3.35094C8.46355 3.42767 8.61298 3.51278 8.75561 3.60557C8.89665 3.3267 8.98622 3.01766 9.01227 2.69031C10.587 3.58969 11.548 5.20356 11.548 7.01887L11.548 7.03371C11.2567 6.89348 10.942 6.81316 10.6227 6.79538C10.6267 6.86947 10.6288 6.94399 10.6288 7.01887C10.6288 7.06414 10.623 7.10376 10.6173 7.14338L10.6173 7.1434C10.6116 7.18302 10.6058 7.22264 10.6058 7.26792V7.31321C10.6058 7.50609 10.7161 7.67182 10.8832 7.74728C10.7468 7.71548 10.6074 7.69811 10.4679 7.69811C10.3301 7.69811 10.1922 7.72075 10.0543 7.74339L10.0543 7.7434C9.64065 7.8566 9.29595 8.10566 9.08913 8.49057C8.88231 8.85283 8.81336 9.28302 8.92827 9.69057C9.00019 9.94567 9.12613 10.1742 9.30611 10.3594C9.15997 10.2915 8.97692 10.3001 8.83634 10.3925C8.68455 10.4922 8.52718 10.582 8.36523 10.6614C8.54456 10.924 8.77632 11.1494 9.0443 11.3324C8.25311 11.7723 7.38164 12 6.49238 12C5.59616 12 4.71801 11.7688 3.95392 11.322C4.21852 11.1357 4.44285 10.9033 4.61883 10.6382C4.47328 10.5646 4.33155 10.4826 4.19437 10.3925C4.0494 10.2814 3.85928 10.2815 3.71104 10.3617C3.8823 10.1802 4.01015 9.95906 4.07947 9.71321C4.19437 9.30566 4.12543 8.87547 3.91861 8.51321C3.71179 8.15094 3.36709 7.87925 2.93046 7.76604C2.79258 7.72076 2.6547 7.69811 2.51682 7.69811C2.24106 7.69811 1.9653 7.76604 1.71252 7.90189C0.954177 8.33208 0.678416 9.30566 1.11504 10.0755C1.32186 10.4377 1.66656 10.7094 2.10318 10.8226C2.51682 10.9358 2.95344 10.8679 3.32113 10.6642C3.39949 10.6207 3.47367 10.5711 3.54302 10.516C3.39242 10.7193 3.46248 11.0061 3.66583 11.1396C3.75985 11.204 3.85595 11.2648 3.95392 11.322C3.89796 11.3615 3.84021 11.3988 3.78073 11.434C3.39007 11.6604 2.95344 11.7736 2.51682 11.7736C2.28702 11.7736 2.0802 11.7509 1.8504 11.683C1.20696 11.5245 0.655436 11.0943 0.333715 10.5283C-0.355687 9.3283 0.0579543 7.81132 1.25292 7.13208C1.31306 7.09652 1.37447 7.06369 1.43695 7.03362C1.43799 7.07508 1.44312 7.12056 1.44825 7.16604C1.45399 7.21698 1.45974 7.26792 1.45974 7.31321V7.35849C1.48272 7.60755 1.68954 7.78868 1.91934 7.78868C1.91934 7.78868 1.94232 7.78868 1.94232 7.76604C2.1951 7.76604 2.40192 7.53962 2.37894 7.29057V7.24528C2.35596 7.17736 2.35596 7.10943 2.35596 7.01887C2.35596 6.94399 2.35802 6.86947 2.3621 6.79538C2.04283 6.81315 1.72821 6.89345 1.43695 7.03362C1.43683 7.02864 1.43676 7.02372 1.43676 7.01887C1.43676 5.21057 2.39031 3.60216 3.97333 2.70076ZM4.90149 2.72956C4.88982 2.6517 4.88377 2.5719 4.88377 2.49057C4.88377 1.60755 5.59615 0.90566 6.49238 0.90566C7.3886 0.90566 8.10098 1.60755 8.10098 2.49057C8.10098 3.37358 7.3886 4.07547 6.49238 4.07547C5.76455 4.07547 5.15796 3.61256 4.95571 2.96566C4.95931 2.89016 4.94376 2.81254 4.90675 2.73962C4.90503 2.73624 4.90328 2.73288 4.90149 2.72956ZM4.90149 2.72956C4.78362 2.51055 4.51265 2.42433 4.28629 2.53585C4.17943 2.58781 4.07508 2.64282 3.97333 2.70076C4.0007 3.02732 4.09131 3.33549 4.23314 3.61345C4.38145 3.5176 4.5372 3.42984 4.69993 3.35094C4.85572 3.2742 4.94814 3.1246 4.95571 2.96566C4.93186 2.88937 4.91363 2.81051 4.90149 2.72956ZM3.54302 10.516C3.60276 10.4685 3.65891 10.417 3.71104 10.3617C3.64779 10.3959 3.59216 10.4447 3.55093 10.5057L3.54302 10.516ZM9.48758 10.5176C9.61583 10.7208 9.56771 11.0064 9.36489 11.1396C9.25964 11.2078 9.15272 11.2721 9.0443 11.3324C9.09622 11.3679 9.1495 11.4017 9.20403 11.434C9.59469 11.6604 10.0313 11.7736 10.4679 11.7736C10.6977 11.7736 10.9046 11.7509 11.1114 11.683C11.7778 11.5245 12.3063 11.0943 12.651 10.5283C13.3634 9.35094 12.9498 7.81132 11.7318 7.13208C11.6718 7.09656 11.6104 7.06376 11.548 7.03371C11.5479 7.1401 11.547 7.22763 11.525 7.33585V7.38113C11.525 7.60755 11.3182 7.78868 11.0654 7.78868H11.0424L11.0305 7.78747C10.9819 7.77226 10.9328 7.75882 10.8832 7.74728C10.9285 7.76771 10.9779 7.78153 11.0305 7.78747C11.1128 7.81323 11.1936 7.84405 11.2722 7.87925C12.0536 8.33208 12.3063 9.30566 11.8697 10.0528C11.6629 10.4377 11.3182 10.6868 10.9046 10.8C10.4909 10.9132 10.0543 10.8453 9.68661 10.6415C9.61573 10.6045 9.54938 10.5631 9.48758 10.5176ZM9.48758 10.5176L9.47979 10.5057C9.43563 10.4404 9.37496 10.3914 9.30611 10.3594C9.36148 10.4164 9.42197 10.4693 9.48758 10.5176Z" fill="#999999"/>
</svg>
