<svg width="18" height="14" viewBox="0 0 18 14" fill="none" xmlns="http://www.w3.org/2000/svg">
<path fill-rule="evenodd" clip-rule="evenodd" d="M11.3036 6.58643C12.1499 5.90992 12.6915 4.86324 12.6915 3.68892C12.6915 1.65428 11.0592 0 9.05167 0C7.04409 0 5.41186 1.65426 5.41186 3.68892C5.41186 4.86324 5.95593 5.90992 6.79975 6.58643C6.03399 6.89276 5.33122 7.35995 4.73176 7.96755C3.57811 9.13676 2.94336 10.6915 2.94336 12.3457C2.94336 12.6878 2.94336 13.0529 2.94589 13.3899C2.94842 13.7268 3.21793 14 3.55042 14H14.5555C14.888 14 15.16 13.7268 15.16 13.3899V12.3457C15.16 10.6915 14.5252 9.13676 13.3716 7.96755C12.7721 7.35997 12.0693 6.89278 11.3036 6.58643H11.3036ZM6.62096 3.68892C6.62096 2.33079 7.71164 1.2254 9.05169 1.2254C10.3917 1.2254 11.4824 2.33079 11.4824 3.68892C11.4824 5.04704 10.3917 6.15244 9.05169 6.15244C7.71164 6.155 6.62096 5.04704 6.62096 3.68892ZM13.9509 12.7746V12.3585H13.951V12.3457C13.951 9.60645 11.7545 7.38036 9.05173 7.38036C6.35148 7.38036 4.15248 9.60647 4.15248 12.3457V12.7746H13.9509Z" fill="currentColor"/>
<path fill-rule="evenodd" clip-rule="evenodd" d="M14.8225 6.30813C15.4774 6.66299 16.0542 7.16335 16.5001 7.76838H16.5C17.1524 8.65677 17.4975 9.71366 17.5 10.8242V11.6845C17.5 11.9653 17.2733 12.1925 16.9962 12.1925H16.9937C16.7166 12.1899 16.4924 11.9602 16.4924 11.6794V10.8216C16.4924 9.02438 15.3564 7.45435 13.6637 6.9157C13.4698 6.85445 13.3313 6.67828 13.3136 6.4715C13.2985 6.26473 13.4068 6.06816 13.5882 5.97369C14.2632 5.62394 14.6839 4.9321 14.6839 4.16369C14.6839 3.26255 14.0869 2.46094 13.2355 2.2133C12.9686 2.13671 12.8149 1.85332 12.8905 1.58273C12.966 1.31213 13.2456 1.15641 13.5126 1.233C14.1273 1.41171 14.6814 1.7972 15.0718 2.31288C15.4748 2.849 15.689 3.4872 15.689 4.16371C15.689 4.98317 15.3716 5.74649 14.8225 6.30813ZM4.68645 6.47407C4.67136 6.68087 4.53282 6.85699 4.33634 6.91827H4.33627C2.64607 7.45437 1.50755 9.02438 1.50755 10.8242V11.6819C1.51006 11.9653 1.28336 12.1951 1.0063 12.1951H1.00377C0.726707 12.1951 0.5 11.9678 0.5 11.687V10.8267C0.5 9.71624 0.845094 8.65936 1.5 7.77094C1.94586 7.16589 2.52517 6.66553 3.17758 6.31069C2.62849 5.74906 2.3111 4.98576 2.3111 4.16627C2.3111 3.48977 2.52517 2.85154 2.92821 2.31544C3.31864 1.79975 3.87279 1.41428 4.48741 1.23557C4.75441 1.15896 5.03151 1.31468 5.10959 1.5853C5.18518 1.85589 5.03153 2.13673 4.76451 2.21586C3.91061 2.46349 3.31617 3.26509 3.31617 4.16625C3.31617 4.93468 3.73681 5.62653 4.41189 5.97626C4.59577 6.07072 4.70409 6.2673 4.68645 6.47407Z" fill="currentColor"/>
</svg>
