<svg width="16" height="12" viewBox="0 0 16 12" fill="none" xmlns="http://www.w3.org/2000/svg">
<path fill-rule="evenodd" clip-rule="evenodd" d="M15.978 4.00909C15.8135 3.35455 14.7443 2.97273 13.1543 2.89091C12.1125 1.17273 10.1935 0 8.00031 0C4.79279 0 2.13357 2.53636 1.96908 5.7C0.598349 6.49091 -0.141847 7.30909 0.0226405 7.99091C0.187129 8.64545 1.2563 9.02727 2.81894 9.10909C3.88811 10.8273 5.80714 12 8.00031 12C11.2352 12 13.867 9.46364 14.0315 6.3C15.3749 5.50909 16.1425 4.69091 15.978 4.00909ZM8.00031 1.09091C9.70002 1.09091 11.1804 1.93636 12.0577 3.21818C12.0714 3.23182 12.0782 3.24545 12.0851 3.25909C12.0919 3.27273 12.0988 3.28636 12.1125 3.3C12.1329 3.33046 12.1533 3.3647 12.1752 3.40131C12.212 3.46304 12.2528 3.53152 12.3044 3.6C12.3181 3.61364 12.325 3.62727 12.3318 3.64091C12.3387 3.65454 12.3455 3.66818 12.3592 3.68182C12.6882 4.28182 12.8801 4.93636 12.9349 5.67273C11.7013 6.3 10.1112 6.9 8.3567 7.33636C6.60216 7.77273 4.90245 7.99091 3.53172 8.01818C3.25757 7.41818 3.09308 6.73636 3.09308 6.02727C3.06567 3.3 5.28626 1.09091 8.00031 1.09091ZM1.22889 7.71818C1.24945 7.725 1.27001 7.73182 1.28372 7.74545C1.53045 7.82727 1.88684 7.90909 2.27064 7.96364C2.16098 7.63636 2.07874 7.30909 2.02391 6.95455C1.66752 7.17273 1.39337 7.41818 1.22889 7.60909C1.22889 7.63636 1.20147 7.66364 1.17406 7.69091C1.18776 7.70455 1.20832 7.71136 1.22889 7.71818ZM8.00031 10.9091C6.43767 10.9091 5.06694 10.2 4.16226 9.08182C5.47816 9.02727 6.98597 8.78182 8.60343 8.4C10.1935 7.99091 11.6739 7.5 12.8527 6.92727C12.4141 9.19091 10.4128 10.9091 8.00031 10.9091ZM13.9493 5.07273C14.3057 4.82727 14.5798 4.58182 14.7443 4.39091C14.7717 4.36364 14.7991 4.33636 14.8266 4.33636C14.8129 4.32273 14.7923 4.31591 14.7717 4.30909C14.7512 4.30227 14.7306 4.29545 14.7169 4.28182C14.4702 4.17273 14.1138 4.11818 13.7026 4.06364C13.8122 4.39091 13.8945 4.71818 13.9493 5.07273Z" fill="#999999"/>
</svg>
