<svg width="12" height="12" viewBox="0 0 12 12" fill="none" xmlns="http://www.w3.org/2000/svg">
<path fill-rule="evenodd" clip-rule="evenodd" d="M1.47409 0H10.5029C11.309 0 11.977 0.6 12 1.31538V10.6846C12 11.4 11.3321 12 10.5259 12H1.47409C0.667946 12 0 11.4 0 10.6846V1.31538C0 0.6 0.667946 0 1.47409 0ZM0.921305 10.6846C0.921305 10.8923 1.17466 11.0769 1.47409 11.0769H10.5259C10.8253 11.0769 11.0787 10.8923 11.0787 10.6846V1.31538C11.0787 1.10769 10.8253 0.923078 10.5259 0.923078H1.47409C1.17466 0.923078 0.921305 1.10769 0.921305 1.31538V10.6846ZM9.21305 5.53846C8.95969 5.53846 8.7524 5.74615 8.7524 6V6.73846L9.53551 7.52308C9.62764 7.61538 9.6737 7.73077 9.6737 7.84615V6C9.6737 5.74615 9.46641 5.53846 9.21305 5.53846ZM9.21305 8.30769C9.46641 8.30769 9.6737 8.1 9.6737 7.84615C9.6737 7.96154 9.62764 8.07692 9.53551 8.16923C9.44338 8.26154 9.32821 8.30769 9.21305 8.30769ZM8.10749 7.38462H8.7524V6.73846L6.31094 4.29231C6.21881 4.2 6.10365 4.15385 5.98848 4.15385C5.87332 4.15385 5.75816 4.2 5.66603 4.29231L4.3762 5.58462L3.08637 4.29231C2.90211 4.10769 2.62572 4.10769 2.44146 4.29231C2.2572 4.47692 2.2572 4.75385 2.44146 4.93846L4.05374 6.55385C4.238 6.73846 4.5144 6.73846 4.69866 6.55385L5.98848 5.26154L8.10749 7.38462ZM8.10749 7.38462H7.37044C7.11708 7.38462 6.90979 7.59231 6.90979 7.84615C6.90979 8.1 7.11708 8.30769 7.37044 8.30769H9.21305C9.09789 8.30769 8.98273 8.26154 8.8906 8.16923L8.10749 7.38462Z" fill="#209600"/>
</svg>
