<svg width="14" height="12" viewBox="0 0 14 12" fill="none" xmlns="http://www.w3.org/2000/svg">
<path fill-rule="evenodd" clip-rule="evenodd" d="M6.9767 12C6.65056 12 6.32441 11.8818 6.04486 11.6454L5.17393 10.8601C3.52512 9.37376 1.45785 7.51021 1.22255 7.27141C0.290698 6.32569 -0.128634 5.02532 0.0344396 3.70132C0.267402 1.83352 1.78165 0.273085 3.64535 0.0366558C4.88005 -0.128845 6.09145 0.273085 7 1.10059C7.90855 0.273085 9.11995 -0.105202 10.3547 0.0366558C12.2416 0.273085 13.7093 1.78624 13.9656 3.70132C14.1286 5.02532 13.7093 6.32569 12.7775 7.27141C12.4513 7.55512 9.58588 10.1322 7.90855 11.6454C7.629 11.8818 7.30285 12 6.9767 12ZM1.87484 6.6094C2.06121 6.79855 3.90161 8.45355 6.67385 10.9361C6.86022 11.1016 7.11648 11.1016 7.27955 10.9361C10.0984 8.42991 11.8922 6.79855 12.0786 6.6094C12.8008 5.87647 13.1269 4.85982 13.0104 3.81953C12.824 2.35367 11.6592 1.17152 10.2149 0.982375C9.11995 0.840517 8.07162 1.24245 7.32615 2.06995C7.13978 2.28274 6.81363 2.28274 6.62726 2.06995C5.90508 1.2188 4.85675 0.840517 3.73853 0.982375C2.29417 1.17152 1.12936 2.35367 0.942991 3.81953C0.82651 4.85982 1.15266 5.87647 1.87484 6.6094ZM10.774 5.9474C10.8672 6.04197 10.9836 6.08926 11.1001 6.08926C11.2166 6.08926 11.3331 6.04197 11.4496 5.97104C11.8922 5.52183 12.1252 4.93075 12.1252 4.29239C12.1252 2.99203 11.0768 1.92809 9.79554 1.92809C9.53928 1.92809 9.32962 2.14088 9.32962 2.40095C9.32962 2.66103 9.53928 2.87381 9.79554 2.87381C10.5643 2.87381 11.1933 3.51217 11.1933 4.29239C11.1933 4.67068 11.0302 5.02532 10.774 5.2854C10.5876 5.47454 10.5876 5.75826 10.774 5.9474Z" fill="#999999"/>
</svg>
