<svg width="12" height="12" viewBox="0 0 12 12" fill="none" xmlns="http://www.w3.org/2000/svg">
<path fill-rule="evenodd" clip-rule="evenodd" d="M9.77778 12H2.22222C1 12 0 11 0 9.77778V2.22222C0 1 1 0 2.22222 0H9.77778C11 0 12 1 12 2.22222V9.77778C12 11 11 12 9.77778 12ZM11.1111 2.22222C11.1111 1.48889 10.5111 0.888888 9.77778 0.888888H8.44444V2.22222C8.44444 2.95555 9.04445 3.55556 9.77778 3.55556H11.1111V2.22222ZM9.77778 4.44444H11.1111V9.77778C11.1111 10.5111 10.5111 11.1111 9.77778 11.1111H2.22222C1.48889 11.1111 0.888889 10.5111 0.888889 9.77778V2.22222C0.888889 1.48889 1.48889 0.888888 2.22222 0.888888H7.55556V2.22222C7.55556 3.44444 8.55556 4.44444 9.77778 4.44444Z" fill="#999999"/>
</svg>
