<svg width="14" height="14" viewBox="0 0 14 14" fill="none" xmlns="http://www.w3.org/2000/svg">
<path fill-rule="evenodd" clip-rule="evenodd" d="M2.33333 6.53333H6.53333V2.33333C6.53333 1.02667 5.50667 0 4.2 0H2.33333C1.02667 0 0 1.02667 0 2.33333V4.2C0 5.50667 1.02667 6.53333 2.33333 6.53333ZM0.933333 2.33333C0.933333 1.58667 1.58667 0.933333 2.33333 0.933333H4.2C4.94667 0.933333 5.6 1.58667 5.6 2.33333V5.6H2.33333C1.58667 5.6 0.933333 4.94667 0.933333 4.2V2.33333ZM4.2 14H2.33333C1.02667 14 0 12.9733 0 11.6667V9.8C0 8.49333 1.02667 7.46667 2.33333 7.46667H6.53333V11.6667C6.53333 12.9733 5.50667 14 4.2 14ZM0.933333 9.8C0.933333 9.05333 1.58667 8.4 2.33333 8.4H5.6V11.6667C5.6 12.4133 4.94667 13.0667 4.2 13.0667H2.33333C1.58667 13.0667 0.933333 12.4133 0.933333 11.6667V9.8ZM11.6667 6.53333H7.46667V2.33333C7.46667 1.02667 8.49333 0 9.8 0H11.6667C12.9733 0 14 1.02667 14 2.33333V4.2C14 5.50667 12.9733 6.53333 11.6667 6.53333ZM11.6667 5.6H8.4V2.33333C8.4 1.58667 9.05333 0.933333 9.8 0.933333H11.6667C12.4133 0.933333 13.0667 1.58667 13.0667 2.33333V4.2C13.0667 4.94667 12.4133 5.6 11.6667 5.6ZM11.6667 14H9.8C8.49333 14 7.46667 12.9733 7.46667 11.6667V7.46667H11.6667C12.9733 7.46667 14 8.49333 14 9.8V11.6667C14 12.9733 12.9733 14 11.6667 14ZM8.4 11.6667V8.4H11.6667C12.4133 8.4 13.0667 9.05333 13.0667 9.8V11.6667C13.0667 12.4133 12.4133 13.0667 11.6667 13.0667H9.8C9.05333 13.0667 8.4 12.4133 8.4 11.6667Z" fill="currentColor"/>
</svg>
