<svg width="14" height="12" viewBox="0 0 14 12" fill="none" xmlns="http://www.w3.org/2000/svg">
<path fill-rule="evenodd" clip-rule="evenodd" d="M6.73736 11.9261C6.816 11.9746 6.90708 12.0003 7 12L6.99998 12C7.04885 12 7.09569 11.994 7.14252 11.978C7.1853 11.966 7.22397 11.9481 7.26266 11.9261C7.26673 11.9241 7.26878 11.9221 7.27284 11.9201C8.5067 11.1476 9.653 10.2352 10.6792 9.20711C11.7054 8.17901 12.6114 7.03708 13.3729 5.81134C13.7821 5.20046 14 4.48776 14 3.75312C14 1.68292 12.2836 0 10.1722 0C9.34351 0 8.55555 0.255541 7.8918 0.738658C7.53956 0.996189 7.24026 1.30363 7 1.65099C6.75974 1.30363 6.46043 0.996172 6.1082 0.738658C5.44648 0.255524 4.65648 0 3.82781 0C1.71641 0 0 1.68292 0 3.75312C0 4.48776 0.215816 5.19845 0.627097 5.81134C1.38859 7.03708 2.29464 8.17901 3.32082 9.20711C4.34495 10.2332 5.49129 11.1456 6.7231 11.9181C6.72697 11.9194 6.73002 11.9215 6.73277 11.9233C6.73437 11.9244 6.73587 11.9254 6.73736 11.9261ZM0.997661 3.75308C0.997661 2.22389 2.26816 0.978177 3.82779 0.978177H3.82786C5.06576 0.978177 6.151 1.75477 6.52564 2.91264C6.59044 3.11603 6.78271 3.25438 7.00003 3.25401C7.21585 3.25401 7.40927 3.11626 7.47443 2.91264C7.84904 1.75475 8.93224 0.978177 10.1722 0.978177C11.7318 0.978177 13.0023 2.22389 13.0023 3.75308C13.0023 4.29808 12.8415 4.82713 12.5361 5.28029C12.534 5.28331 12.5325 5.28583 12.5309 5.28835C12.5294 5.29082 12.5279 5.2933 12.5259 5.29626C11.1353 7.53615 9.22951 9.4766 7 10.9279C4.77254 9.47861 2.86474 7.53617 1.4741 5.29626C1.47204 5.29324 1.4705 5.29072 1.46896 5.2882C1.46744 5.28573 1.46593 5.28325 1.46392 5.28029C1.15852 4.82713 0.997661 4.29808 0.997661 3.75308Z" fill="currentColor"/>
</svg>
