<svg width="16" height="14" viewBox="0 0 16 14" fill="none" xmlns="http://www.w3.org/2000/svg">
<path fill-rule="evenodd" clip-rule="evenodd" d="M13.2835 0H2.82408C1.54201 0.00350214 0.503583 1.01853 0.5 2.27171V8.88707C0.5 10.1398 1.54464 11.1588 2.82408 11.1588H4.16005L5.14816 13.66C5.26447 13.8863 5.43949 14 5.67102 14C5.90256 14 6.13519 13.8863 6.19389 13.66L7.182 11.1588H13.165C14.4445 11.1588 15.4913 10.1398 15.4913 8.88707V2.27064C15.6065 1.02216 14.5619 0 13.2835 0ZM14.4445 8.88601C14.4439 9.51266 13.9246 10.0207 13.2835 10.0219H6.89068C6.65914 10.0219 6.42651 10.1377 6.3689 10.3619L5.72864 11.8972L5.09055 10.3629C4.97424 10.1387 4.80031 10.0229 4.56768 10.0229H2.82408C2.1828 10.0218 1.66324 9.5139 1.66204 8.88707V2.27064C1.66204 1.64693 2.18599 1.13479 2.82408 1.13479H13.2835C13.9216 1.13479 14.4445 1.64693 14.4445 2.27064V8.88601ZM4.52312 6.46767C4.07285 6.46767 3.70784 6.11088 3.70784 5.67077C3.70784 5.23065 4.07285 4.87386 4.52312 4.87386C4.97338 4.87386 5.33839 5.23065 5.33839 5.67077C5.33839 6.11088 4.97338 6.46767 4.52312 6.46767ZM11.3856 6.46767H11.4272V6.46665C11.8581 6.44546 12.2008 6.09723 12.2008 5.67077C12.2008 5.2443 11.8581 4.89607 11.4272 4.87488V4.87386H11.3856H7.94293C7.49266 4.87386 7.12765 5.23065 7.12765 5.67077C7.12765 6.11088 7.49266 6.46767 7.94293 6.46767H11.3856ZM11.3856 6.46767C11.3995 6.46767 11.4134 6.46733 11.4272 6.46665V4.87488C11.4134 4.8742 11.3995 4.87386 11.3856 4.87386C10.9353 4.87386 10.5703 5.23065 10.5703 5.67077C10.5703 6.11088 10.9353 6.46767 11.3856 6.46767Z" fill="currentColor"/>
</svg>
