<svg width="14" height="14" viewBox="0 0 14 14" fill="none" xmlns="http://www.w3.org/2000/svg">
<path fill-rule="evenodd" clip-rule="evenodd" d="M6.50051 1.47015C6.51246 1.72562 6.73259 1.93103 7 1.93103C7.26741 1.93103 7.48754 1.72562 7.49949 1.47015C10.2928 1.71584 12.5 4.00044 12.5 6.75862V11.1034L11.5 11.1034V6.75862C11.5 4.36897 9.475 2.41379 7 2.41379C4.525 2.41379 2.5 4.36897 2.5 6.75862V11.1034L1.5 11.1034V6.75862C1.5 4.00044 3.70725 1.71584 6.50051 1.47015ZM1.5 11.1034V11.5862C1.5 11.8517 1.725 12.069 2 12.069H0.5C0.225 12.069 0 11.8517 0 11.5862C0 11.3207 0.225 11.1034 0.5 11.1034H1.5ZM6.50051 1.47015C6.50017 1.4629 6.5 1.4556 6.5 1.44828V0.482759C6.5 0.217241 6.725 0 7 0C7.275 0 7.5 0.217241 7.5 0.482759V1.44828C7.5 1.4556 7.49983 1.4629 7.49949 1.47015C7.33492 1.45567 7.16831 1.44828 7 1.44828C6.83169 1.44828 6.66508 1.45567 6.50051 1.47015ZM12.5 11.1034V11.5862C12.5 11.8517 12.275 12.069 12 12.069H13.5C13.775 12.069 14 11.8517 14 11.5862C14 11.3207 13.775 11.1034 13.5 11.1034H12.5ZM7 14C5.625 14 4.5 12.9138 4.5 11.5862C4.5 11.3207 4.725 11.1034 5 11.1034C5.275 11.1034 5.5 11.3207 5.5 11.5862C5.5 12.3828 6.175 13.0345 7 13.0345C7.825 13.0345 8.5 12.3828 8.5 11.5862C8.5 11.3207 8.725 11.1034 9 11.1034C9.275 11.1034 9.5 11.3207 9.5 11.5862C9.5 12.9138 8.375 14 7 14Z" fill="#666666"/>
</svg>
