<svg width="12" height="12" viewBox="0 0 12 12" fill="none" xmlns="http://www.w3.org/2000/svg">
<path fill-rule="evenodd" clip-rule="evenodd" d="M6.94064 12H9.32787C10.0428 12 10.624 11.4167 10.624 10.6993V6.91696H10.993C11.396 6.91696 11.7597 6.67543 11.9183 6.30506C12.077 5.93469 12.0003 5.50529 11.724 5.21187L7.36318 0.588647C7.01018 0.214693 6.51455 0 6.0011 0C5.48765 0 4.99202 0.214722 4.63901 0.588647L0.276409 5.21187C-0.00170428 5.50529 -0.0765946 5.9347 0.0820736 6.30506C0.242534 6.67722 0.604455 6.91696 1.00738 6.91696H1.26766V10.6993C1.26766 11.4167 1.84886 12 2.56378 12H4.94923C5.06279 12.0003 5.17178 11.9551 5.25208 11.8745C5.33239 11.7939 5.37738 11.6846 5.37711 11.5706V7.84911C5.37711 7.84553 5.38244 7.84196 5.38423 7.84196H6.50563C6.5092 7.84196 6.51276 7.84732 6.51276 7.84911V11.5706C6.51248 11.6846 6.55747 11.7939 6.63778 11.8745C6.71808 11.9551 6.82707 12.0003 6.94064 12ZM9.32787 11.1412H7.37034V7.8491C7.37034 7.37139 6.98346 6.98313 6.50744 6.98313H5.38604C4.91002 6.98313 4.52314 7.37139 4.52314 7.8491V11.1412H2.5638C2.32132 11.1412 2.12343 10.9426 2.12343 10.6993V6.48753C2.1237 6.37356 2.07871 6.26418 1.99841 6.18359C1.91811 6.103 1.80911 6.05785 1.69555 6.05813H1.00738C0.961014 6.05813 0.896833 6.03485 0.868305 5.96687C0.837999 5.89889 0.864735 5.83627 0.896833 5.80227L5.25944 1.17905C5.45377 0.971505 5.71585 0.858785 5.99932 0.858785C6.2828 0.858785 6.54487 0.973289 6.7392 1.17905L11.1036 5.80227C11.1339 5.83626 11.1607 5.89888 11.1321 5.96687C11.1036 6.03486 11.0394 6.05813 10.9931 6.05813H10.1961C10.0826 6.05785 9.97356 6.103 9.89326 6.18359C9.81296 6.26418 9.76796 6.37356 9.76824 6.48753V10.6993C9.76824 10.9426 9.57035 11.1412 9.32787 11.1412Z" fill="#999999"/>
</svg>
