<?xml version="1.0" standalone="no"?><!DOCTYPE svg PUBLIC "-//W3C//DTD SVG 1.1//EN" "http://www.w3.org/Graphics/SVG/1.1/DTD/svg11.dtd"><svg t="1724046483079" class="icon" viewBox="0 0 1024 1024" version="1.1" xmlns="http://www.w3.org/2000/svg" p-id="1474" width="64" height="64" xmlns:xlink="http://www.w3.org/1999/xlink"><path d="M88 880V120a7.552 7.552 0 0 1 2.56-5.632c0.448-0.768 1.28-1.344 2.56-1.728a5.952 5.952 0 0 1 2.56-0.64h56.32c0.832 0 1.92 0.192 3.2 0.64a11.2 11.2 0 0 1 2.56 1.728 7.296 7.296 0 0 1 1.92 2.56v723.072h768c1.28 0 2.368 0.192 3.2 0.64 1.28 0.384 2.112 0.96 2.56 1.728a7.232 7.232 0 0 1 2.56 5.632v56a7.552 7.552 0 0 1-2.56 5.632c-0.448 0.768-1.28 1.344-2.56 1.792a7.488 7.488 0 0 1-3.2 0.576H120a33.92 33.92 0 0 1-6.4-0.64 24 24 0 0 1-5.76-1.792 26.688 26.688 0 0 1-10.24-6.912 29.504 29.504 0 0 1-4.48-4.864 147.968 147.968 0 0 1-2.56-5.568 29.76 29.76 0 0 1-2.56-12.224z m131.84-280.256l197.76-198.016a23.168 23.168 0 0 1 4.48-3.968c2.112-1.152 4.032-2.176 5.76-2.944a39.04 39.04 0 0 1 12.16-2.432 33.856 33.856 0 0 1 12.16 2.432 27.008 27.008 0 0 1 5.76 2.944 55.872 55.872 0 0 1 5.12 3.968l129.92 130.112 254.72-254.528c0.448-0.768 1.28-1.28 2.56-1.728a5.888 5.888 0 0 1 2.56-0.64c1.28 0 2.368 0.192 3.2 0.64 1.28 0.384 2.112 0.96 2.56 1.728l39.68 39.616a7.488 7.488 0 0 1 1.92 8.704 7.296 7.296 0 0 1-1.92 2.624l-254.72 254.592-28.16 28.288a23.168 23.168 0 0 1-10.24 6.912 33.792 33.792 0 0 1-18.56 1.792 24.32 24.32 0 0 1-5.76-1.792 27.2 27.2 0 0 1-10.24-6.912l-28.8-28.288-101.76-101.888-169.6 169.728a11.2 11.2 0 0 1-2.56 1.728 7.488 7.488 0 0 1-3.2 0.64 11.136 11.136 0 0 1-3.2-0.64 11.2 11.2 0 0 1-2.56-1.728l-39.68-39.616a25.856 25.856 0 0 1-1.28-2.56 7.616 7.616 0 0 1 1.92-8.768z" fill="#333333" p-id="1475"></path></svg>