<svg width="12" height="12" viewBox="0 0 12 12" fill="none" xmlns="http://www.w3.org/2000/svg">
<path fill-rule="evenodd" clip-rule="evenodd" d="M1.47409 12H10.5029C11.309 12 11.977 11.4 12 10.6846V1.31538C12 0.6 11.3321 0 10.5259 0H1.47409C0.667946 0 0 0.6 0 1.31538V10.6846C0 11.4 0.667946 12 1.47409 12ZM0.921305 1.31538C0.921305 1.10769 1.17466 0.923077 1.47409 0.923077H10.5259C10.8253 0.923077 11.0787 1.10769 11.0787 1.31538V10.6846C11.0787 10.8923 10.8253 11.0769 10.5259 11.0769H1.47409C1.17466 11.0769 0.921305 10.8923 0.921305 10.6846V1.31538ZM9.21305 6.46154C8.95969 6.46154 8.7524 6.25385 8.7524 6V5.26154L9.53551 4.47692C9.62764 4.38462 9.6737 4.26923 9.6737 4.15385V6C9.6737 6.25385 9.46641 6.46154 9.21305 6.46154ZM9.21305 3.69231C9.46641 3.69231 9.6737 3.9 9.6737 4.15385C9.6737 4.03846 9.62764 3.92308 9.53551 3.83077C9.44338 3.73846 9.32821 3.69231 9.21305 3.69231ZM8.10749 4.61538H8.7524V5.26154L6.31094 7.70769C6.21881 7.8 6.10365 7.84615 5.98848 7.84615C5.87332 7.84615 5.75816 7.8 5.66603 7.70769L4.3762 6.41538L3.08637 7.70769C2.90211 7.89231 2.62572 7.89231 2.44146 7.70769C2.2572 7.52308 2.2572 7.24615 2.44146 7.06154L4.05374 5.44615C4.238 5.26154 4.5144 5.26154 4.69866 5.44615L5.98848 6.73846L8.10749 4.61538ZM8.10749 4.61538H7.37044C7.11708 4.61538 6.90979 4.40769 6.90979 4.15385C6.90979 3.9 7.11708 3.69231 7.37044 3.69231H9.21305C9.09789 3.69231 8.98273 3.73846 8.8906 3.83077L8.10749 4.61538Z" fill="#0073EB"/>
</svg>
