<svg width="12" height="12" viewBox="0 0 12 12" fill="none" xmlns="http://www.w3.org/2000/svg">
<path fill-rule="evenodd" clip-rule="evenodd" d="M0 6C0 9.31371 2.68629 12 6 12C9.31371 12 12 9.31371 12 6C12 2.68629 9.31371 0 6 0C2.68629 0 0 2.68629 0 6ZM5.48486 6.996V7.08986C5.484 7.09843 5.484 7.107 5.484 7.11557C5.484 7.359 5.688 7.55614 5.93957 7.55614C6.18471 7.55614 6.38443 7.36929 6.39514 7.13486H6.396V6.99557C6.39273 6.80653 6.43977 6.62002 6.53229 6.45514C6.62109 6.29022 6.74273 6.14524 6.88971 6.02914C7.29 5.69357 7.52829 5.48014 7.605 5.39014C7.818 5.12829 7.92857 4.79229 7.92857 4.39114C7.92857 3.89957 7.75843 3.50657 7.41771 3.21986C7.077 2.925 6.63429 2.78571 6.08957 2.78571C5.45914 2.78571 4.96543 2.95757 4.608 3.30986C4.25014 3.654 4.07143 4.12071 4.07143 4.71857H4.07314C4.07201 4.73111 4.07144 4.7437 4.07143 4.75629C4.07143 4.99543 4.272 5.18914 4.51971 5.18914C4.76743 5.18914 4.968 4.99543 4.968 4.75629C4.96805 4.74025 4.96719 4.72422 4.96543 4.70829C4.96714 4.353 5.04343 4.07786 5.19557 3.88329C5.36571 3.64586 5.64643 3.531 6.03 3.531C6.33643 3.531 6.58329 3.61286 6.75343 3.77657C6.91543 3.94071 7.00029 4.16143 7.00029 4.44857C7.00029 4.66114 6.91543 4.85786 6.762 5.04643L6.61714 5.202C6.08957 5.65243 5.766 5.98843 5.655 6.21771C5.53629 6.43029 5.48486 6.69257 5.48486 6.996ZM6 11.1429C8.84014 11.1429 11.1429 8.84014 11.1429 6C11.1429 3.15986 8.84014 0.857143 6 0.857143C3.15986 0.857143 0.857143 3.15986 0.857143 6C0.857143 8.84014 3.15986 11.1429 6 11.1429ZM6.38743 8.20671C6.26829 8.09229 6.11486 8.043 5.93614 8.043C5.766 8.043 5.61257 8.09229 5.49343 8.20671C5.37429 8.31343 5.31471 8.45271 5.31471 8.62457C5.3123 8.78291 5.37726 8.93481 5.49343 9.04243C5.61257 9.15686 5.766 9.21429 5.93614 9.21429C6.09896 9.21677 6.25683 9.15839 6.37886 9.05057C6.498 8.93571 6.56614 8.79643 6.56614 8.62457C6.56614 8.45271 6.50657 8.31343 6.38743 8.20671Z" fill="#999999"/>
</svg>
