<svg width="14" height="13" viewBox="0 0 14 13" fill="none" xmlns="http://www.w3.org/2000/svg">
<path fill-rule="evenodd" clip-rule="evenodd" d="M11.1481 12H13.4815C13.7667 12 14 12.225 14 12.5C14 12.775 13.7667 13 13.4815 13H0.518519C0.233333 13 0 12.775 0 12.5C0 12.225 0.233333 12 0.518519 12H2.85185V7C2.85185 4.8 4.71852 3 7 3C9.28148 3 11.1481 4.8 11.1481 7V12ZM3.88889 7V12H10.1111V7C10.1111 5.35 8.71111 4 7 4C5.28889 4 3.88889 5.35 3.88889 7Z" fill="#D40000"/>
<path fill-rule="evenodd" clip-rule="evenodd" d="M7.51852 1.5C7.51852 1.775 7.28519 2 7 2C6.71481 2 6.48148 1.775 6.48148 1.5V0.5C6.48148 0.225 6.71481 0 7 0C7.28519 0 7.51852 0.225 7.51852 0.5V1.5ZM4.92593 7.5C4.92593 7.225 5.15926 7 5.44444 7C5.72963 7 5.96296 7.225 5.96296 7.5V10.5C5.96296 10.775 5.72963 11 5.44444 11C5.15926 11 4.92593 10.775 4.92593 10.5V7.5ZM10.9407 3.025L11.6667 2.325C11.8741 2.125 11.8741 1.825 11.6667 1.625C11.4593 1.425 11.1481 1.425 10.9407 1.625L10.2148 2.325C10.0074 2.525 10.0074 2.825 10.2148 3.025C10.4222 3.225 10.7593 3.225 10.9407 3.025ZM3.88889 3.025C3.68148 3.225 3.37037 3.225 3.16296 3.025L2.43704 2.325C2.22963 2.125 2.22963 1.825 2.43704 1.625C2.64444 1.425 2.95556 1.425 3.16296 1.625L3.88889 2.325C4.0963 2.525 4.0963 2.825 3.88889 3.025ZM0.518519 6.25H1.55556C1.84074 6.25 2.07407 6.025 2.07407 5.75C2.07407 5.475 1.84074 5.25 1.55556 5.25H0.518519C0.233333 5.25 0 5.475 0 5.75C0 6.025 0.233333 6.25 0.518519 6.25ZM13.4815 6.25H12.4444C12.1593 6.25 11.9259 6.025 11.9259 5.75C11.9259 5.475 12.1593 5.25 12.4444 5.25H13.4815C13.7667 5.25 14 5.475 14 5.75C14 6.025 13.7667 6.25 13.4815 6.25Z" fill="#D40000"/>
</svg>
